<?xml version="1.0" encoding="utf-8"?>
<!-- Generator: Adobe Illustrator 19.0.0, SVG Export Plug-In . SVG Version: 6.00 Build 0)  -->
<svg version="1.1" id="Layer_1" xmlns="http://www.w3.org/2000/svg" xmlns:xlink="http://www.w3.org/1999/xlink" x="0px" y="0px"
	 viewBox="0 0 1497.1 1254.1" style="enable-background:new 0 0 1497.1 1254.1;" xml:space="preserve">
<style type="text/css">
	.st0{fill:#7A121E;}
</style>
<g>
	<g>
		<g>
			<path class="st0" d="M271.6,623.2c1.6,0.6,2.6,1.6,3,3.1c0.4,1.5,0.1,3-0.9,4.6c-3.6,7.1-7.4,14.4-11.6,21.7
				c-4.2,7.3-8.4,14.5-12.8,21.5c-4.4,7-8.7,13.8-13.1,20.2c-4.4,6.4-8.6,12.3-12.8,17.7c-15.2,20-30.9,36.5-46.9,49.6
				c-15,12.1-29.9,20.8-44.6,26.1c-5.2,2.2-10.5,3.8-16.2,4.8c-5.6,1-11.1,1.5-16.5,1.5c-6.3,0-12.6-0.8-18.7-2.4
				c-6.1-1.6-11.8-4.1-16.9-7.4c-9.1-5.3-16.3-12.3-21.7-20.8c-5.3-8.5-9.1-17.8-11.3-27.8c-2.2-10-2.9-20.4-2.2-31.3
				c0.7-10.9,2.4-21.4,5.2-31.5c4.9-17.4,10.4-33.6,16.3-48.6c5.9-14.9,12.8-28.9,20.6-41.9c7.8-13,16.7-25.2,26.6-36.8
				c9.9-11.6,21.2-22.7,33.9-33.4c4.2-3.6,9.7-7.1,16.5-10.7c6.8-3.6,14.3-6.2,22.3-8c8-1.8,16.2-2.1,24.5-0.9
				c8.3,1.2,16,4.9,23.2,11c5.5,4.8,10,11.6,13.4,20.6c3.4,9,5.1,18.7,5.1,29.1c0,10.4-1.9,20.9-5.8,31.5
				c-3.9,10.6-10.2,19.8-18.9,27.5c-2.8,2.4-6.4,3.2-11,2.5c-4.6-0.7-8.8-2.2-12.6-4.5c-3.9-2.3-6.7-4.9-8.5-8
				c-1.8-3.1-1.2-5.8,1.8-8.2c5.5-4.4,10.4-10,14.7-16.9c4.3-6.9,7.6-14.2,9.9-21.7c2.4-7.5,3.7-14.8,3.9-21.8
				c0.2-7-0.9-12.8-3.3-17.4c-2.2-3.8-5.7-5.2-10.7-4.3c-5,0.9-10.8,3.8-17.7,8.6c-6.8,4.9-14.2,11.4-22.1,19.8
				c-7.9,8.3-15.8,18-23.8,29.1c-5.9,8.3-11.5,17.3-16.6,26.9c-5.2,9.6-9.8,19.1-13.8,28.5c-4.1,9.4-7.6,18.5-10.7,27.2
				c-3.1,8.7-5.5,16.4-7.3,23.2c-3.6,13.1-5.3,25.2-5.3,36.5c0,11.3,1.4,21.2,4.3,29.9c2.9,8.6,7.1,15.6,12.6,21.1
				c5.5,5.4,12.1,8.8,19.6,10.1c7.5,1.3,15.9,0.3,25.1-2.8c9.2-3.2,19.1-9,29.6-17.5c7.9-6.5,16-14.3,24.2-23.2
				c8.2-8.9,16.3-18.8,24.4-29.6c8-10.8,15.8-22.4,23.5-34.8c7.6-12.4,14.9-25.3,21.8-38.8C265.3,622.6,268,621.6,271.6,623.2z"/>
			<path class="st0" d="M359.2,587.9c0,3.2-0.6,5.4-1.8,6.8c-1.6,3-4.1,4.5-7.4,4.5c-2.4,0-4.5-0.8-6.4-2.4
				c-1.9-1.6-2.8-3.7-2.8-6.2c0-1.6,0.4-3.1,1.3-4.5c0.9-1.4,2-2.6,3.4-3.6c-1.6-2.8-3.4-4.2-5.5-4.2s-4.3,0.8-6.7,2.5
				c-2.4,1.7-4.8,4-7.3,6.8c-2.5,2.9-4.9,5.8-7.3,8.8c-4.2,5.3-8.2,11.5-12,18.6c-3.9,7-7.3,14.3-10.2,21.7c-3,7.4-5.3,14.8-7.1,22
				c-1.8,7.2-2.7,13.8-2.8,19.8c-0.1,5.9,0.7,10.8,2.5,14.7c1.8,3.9,4.8,6.2,8.9,7c3,0.6,6.3-0.7,10-4c3.7-3.3,7.3-7.5,11-12.6
				c3.7-5.1,7.2-10.7,10.7-16.8c3.5-6,6.5-11.6,9.1-16.8c-4.2-1.8-7-4.7-8.6-8.8c-1.6-4.1-2.1-8.2-1.5-12.3c0.6-4.2,2.2-7.8,4.8-11
				c2.6-3.2,5.8-4.8,9.8-4.8c1.4,0,3.2,0.1,5.3,0.3c2.2,0.2,4.1,1.2,5.6,3.1c1.6,1.9,2.5,4.9,2.7,9.1c0.2,4.2-0.9,10.2-3.3,18.1
				c7.9-0.2,14.3-1.3,19-3.3c4.8-2,8.5-4.2,11.1-6.5c2.7-2.4,4.5-4.7,5.3-7c0.9-2.3,1.5-3.7,1.9-4.3c0.6-1.4,1.5-2.2,2.8-2.5
				c1.3-0.3,2.5-0.1,3.7,0.4c1.2,0.6,2.1,1.5,2.7,2.8c0.6,1.3,0.6,2.7,0,4.3c-1.6,3.8-4.1,7.2-7.4,10.4c-3.4,3.2-7.3,5.8-11.7,8
				c-4.5,2.2-9.4,3.9-14.9,5.1c-5.4,1.2-10.9,1.7-16.5,1.5c-2.8,6.1-6.3,13-10.5,20.5c-4.3,7.5-9.2,14.5-14.7,20.9
				c-5.5,6.4-11.6,11.7-18.3,15.9c-6.6,4.2-13.7,5.9-21.2,5.3c-9.9-1-17.7-5.1-23.3-12.5c-5.6-7.3-8.7-16.2-9.1-26.7
				c-0.2-7.9,0.6-16.2,2.4-24.8c1.8-8.6,4.5-17.1,8-25.4c3.6-8.3,7.9-16.2,13.1-23.6c5.1-7.4,10.9-13.9,17.4-19.5
				c6.4-5.5,13.5-9.8,21.1-12.8c7.6-3,15.6-4.3,23.9-3.9c3.8,0.2,6.9,1,9.4,2.5c2.5,1.5,4.5,3.3,6.1,5.3c1.6,2.1,2.8,4.4,3.6,6.8
				C358.2,583.4,358.8,585.7,359.2,587.9z"/>
			<path class="st0" d="M468.8,625c-1.6,3.4-3.9,8-6.8,13.8c-3,5.8-6.5,12.1-10.5,18.7c-4.1,6.6-8.5,13.3-13.2,20
				c-4.8,6.7-9.7,12.9-14.7,18.4c-5,5.5-10.2,10.1-15.3,13.7c-5.2,3.6-10.1,5.3-14.9,5.3c-4,0.2-7.4-0.6-10.2-2.4
				c-2.9-1.8-5.2-4.3-7-7.6c-1.8-3.3-3-7.2-3.6-11.9c-0.6-4.7-0.6-9.7,0-15c0.8-6.5,3.3-15.7,7.4-27.6c4.2-11.9,9.1-24.9,14.9-39.1
				c5.7-14.2,11.8-28.6,18.1-43.4c6.3-14.7,12-28.3,17.1-40.7c5-12.4,9-22.7,11.7-31c2.8-8.3,3.5-13.2,2.1-14.6
				c-1.4-1.2-0.7-2.6,1.9-4.2c2.7-1.6,6-2.5,9.9-2.7c4-0.2,8.1,0.7,12.3,2.7c4.3,2,7.3,5.9,9.1,11.9c1.4,4.4,1,10.7-1.2,19.2
				c-2.2,8.4-5.4,18-9.7,28.7c-4.3,10.7-9.3,22.2-15,34.6c-5.7,12.4-11.5,24.6-17.4,36.7c-5.8,12.1-11.4,23.7-16.6,34.9
				c-5.2,11.2-9.5,21-12.8,29.4c-3.3,8.4-5.2,15.1-5.6,20c-0.5,5,0.9,7.2,4.3,6.8c2-0.2,4.5-1.8,7.6-4.8c3.1-3,6.5-6.8,10.2-11.4
				c3.8-4.7,7.6-9.8,11.6-15.6c4-5.7,7.7-11.5,11.3-17.2c3.6-5.7,6.7-11.2,9.5-16.3c2.8-5.1,4.8-9.4,5.9-12.8c0.6-1.6,1.6-2.6,3-3
				c1.4-0.4,2.7-0.4,3.9,0c1.2,0.4,2.1,1.2,2.8,2.4C469.6,622.3,469.6,623.6,468.8,625z"/>
			<path class="st0" d="M534.4,590.5c0-1.6,0.4-3.1,1.3-4.5c0.9-1.4,2-2.6,3.4-3.6c-1-2.4-2.6-3.6-4.8-3.6c-2.8-0.2-5.8,1-9.2,3.7
				c-3.4,2.7-7,6.5-10.8,11.6c-3.9,5.1-7.9,11.3-12,18.7c-4.2,7.4-8.3,15.7-12.5,24.8c-2.6,5.7-4.7,11.9-6.4,18.6
				c-1.7,6.6-2.6,13-2.8,19c-0.2,6,0.4,11.3,1.8,15.9c1.4,4.6,3.9,7.5,7.4,8.9c2.8,1.2,5.7,0.9,8.8-0.9c3.1-1.8,6.1-4.6,9.2-8.3
				c3.1-3.8,6.2-8.3,9.5-13.7c3.3-5.3,6.4-10.9,9.5-16.8c3.1-5.8,6-11.7,8.9-17.5c2.9-5.8,5.6-11.2,8.2-16.2
				c2.8-6.5,5.5-12.7,8.2-18.6c2.7-5.8,4.9-11.1,6.7-15.7c1.8-4.7,3-8.6,3.6-11.9c0.6-3.3,0.3-5.5-0.9-6.7c-1.4-1.2-0.7-2.6,1.9-4.2
				c2.7-1.6,6-2.5,10-2.7c4-0.2,8.1,0.7,12.3,2.7c4.3,2,7.3,5.9,9.1,11.9c1.8,5.7,1.5,12.7-0.9,20.9c-2.4,8.2-5.7,16.8-10,25.7
				c-4.3,8.9-8.8,17.7-13.7,26.4c-4.9,8.7-8.9,16.5-12.2,23.3c-3.3,6.8-5.2,12.3-5.6,16.3c-0.5,4.1,1.5,5.9,6.1,5.5
				c1.8-0.2,4.3-1.8,7.4-4.8c3.2-3,6.6-6.8,10.4-11.4c3.8-4.7,7.7-9.8,11.7-15.6c4.1-5.7,7.8-11.5,11.3-17.2
				c3.5-5.7,6.6-11.2,9.4-16.3c2.8-5.1,4.8-9.4,5.9-12.8c0.6-1.6,1.6-2.6,3-3c1.4-0.4,2.7-0.4,3.9,0c1.2,0.4,2.1,1.2,2.8,2.4
				c0.7,1.2,0.6,2.5-0.1,3.9c-1.6,3.4-3.9,8-6.8,13.8c-3,5.8-6.5,12.1-10.5,18.7c-4.1,6.6-8.5,13.3-13.2,20
				c-4.8,6.7-9.7,12.9-14.7,18.4c-5,5.5-10.2,10.1-15.3,13.7c-5.2,3.6-10.1,5.3-14.9,5.3c-7.5,0.4-13.2-2.7-16.9-9.2
				c-3.8-6.5-5.2-14.9-4.2-24.9c-3.8,6.1-7.7,11.7-11.9,16.8c-4.2,5-8.7,9.1-13.5,12c-4.9,3-10,4.8-15.4,5.3
				c-5.4,0.6-11.4-0.5-18-3.3c-7.9-3.2-13.6-7.8-17.1-14c-3.5-6.1-5.5-12.8-6.1-20c-0.6-7.2,0-14.7,1.8-22.6c1.8-7.8,4-15,6.5-21.5
				c4.8-12.1,10-22.4,15.9-31c5.8-8.6,12-15.6,18.6-21.1c6.5-5.4,13.3-9.4,20.2-11.7c6.9-2.4,14-3.5,21.1-3.3
				c2.4,0.2,4.9,0.6,7.6,1.3c2.7,0.7,5.1,1.8,7.4,3.4c2.3,1.6,4.2,3.7,5.8,6.4c1.6,2.7,2.4,6,2.4,10c0,4.4-1,7.3-3,8.9
				c-1.6,1.8-3.7,2.7-6.2,2.7c-2.4,0-4.5-0.8-6.4-2.4C535.4,595.2,534.4,593.1,534.4,590.5z"/>
			<path class="st0" d="M1183.1,489.8c-1.4,5.2-4.4,9.4-8.9,12.8c-4.6,3.4-9.1,5.8-13.7,7.3c-4.6,1.5-8.3,2-11.1,1.5
				c-2.9-0.5-3.3-2-1.3-4.6c4.9-6.7,6.5-12.3,4.6-16.8c-1.9-4.5-5.9-7.8-12.2-9.9c-6.2-2.2-14.1-3.1-23.6-2.8
				c-9.5,0.3-19.4,1.9-29.7,4.9c-22,6.3-42.6,15.6-61.8,27.8c-19.2,12.2-36.6,26.7-52.1,43.7c-15.5,16.9-29.1,35.9-40.5,57
				c-11.5,21.1-20.5,43.7-27,67.9c24.2-5.5,43.6-14,58.2-25.2c3.2-2.2,5.9-2,8.3,0.6c1,1.4,1.3,2.9,0.9,4.5
				c-0.4,1.6-1.3,2.9-2.7,3.9c-17.2,13.7-39.7,23.2-67.4,28.5c-2.4,14.1-2.9,27.5-1.6,40.4c1.3,12.9,4,24.9,8.2,36.2
				c1,2.8,0.6,5.1-1.2,7c-1.8,1.9-4.4,3.4-7.7,4.6c-3.4,1.2-7.2,1.9-11.6,2.2c-4.4,0.3-8.5,0.2-12.5-0.1c-4-0.4-7.5-1.3-10.7-2.7
				c-3.2-1.4-5.2-3.2-5.9-5.3c-3.6-8.7-6-16.9-7.3-24.7c-1.3-7.7-2-14.8-2.1-21.1c-0.1-6.3,0-12.1,0.4-17.2
				c0.4-5.1,0.6-9.6,0.6-13.4c-9.9,0.4-20,0.3-30.3-0.1c-10.3-0.5-21.1-1.2-32.4-2.2c-2.4,4.6-4.8,8.9-7.3,12.9
				c-2.5,4.1-5.1,8.1-7.9,12c-6.9,9.5-14.6,18-23,25.5c-8.4,7.5-17.3,13.9-26.6,19c-12.9,6.9-25.4,10.9-37.7,11.9
				c-0.8,0.2-1.6,0.3-2.4,0.3c-0.8,0-1.7,0-2.7,0c-7.1,0-13.7-1.2-19.6-3.6c-0.2-0.2-0.4-0.3-0.6-0.3c-3.2-1.4-5.6-2.9-7.4-4.5
				c-4.6-3.4-8-7.5-10.4-12.5c-2.4-5-3.5-10.4-3.3-16.3c0.2-6.1,1.6-12.4,4.3-18.7c2.7-6.3,6.5-12.3,11.4-17.8
				c4-4.8,8.8-9,14.4-12.8c5.6-3.8,11.6-6.9,18-9.5c5.3-2.2,10.9-3.8,16.6-4.9c5.7-1.1,11.7-1.7,17.8-1.9c4.2,0,8.1,0.2,11.9,0.6
				c3.8,0.4,7.6,0.9,11.6,1.5c3-7.1,5.4-14.2,7.3-21.2c1.9-7,3.5-14.1,4.9-21.2c1.4-7.1,2.7-14.2,3.9-21.2c1.2-7,2.6-14.1,4.2-21.2
				c-3.2-2.2-6-4.5-8.6-7c-2.6-2.5-5.2-5-8-7.6c-0.4-0.6-0.8-1.1-1.3-1.6c-0.5-0.5-0.9-0.9-1.3-1.3c-5.2-5.1-10.4-10-15.7-14.7
				c-5.3-4.6-11.4-8.4-18.1-11.1c-7.7-3.2-15.4-4.6-23.2-4.3c-7.7,0.3-14.7,2.1-20.8,5.5c-6.1,3.4-11.1,8.2-15,14.6
				c-3.9,6.3-5.9,13.9-6.1,22.6c0,2.6-1.7,4.5-5.1,5.8c-3.4,1.3-7.1,1.9-11.1,1.9c-4.1,0-7.7-0.7-11-2.2c-3.3-1.5-4.8-3.7-4.6-6.7
				c0.4-6.9,2.3-13.3,5.6-19.2c3.4-5.8,7.8-11,13.2-15.4c5.4-4.5,11.7-8.2,18.7-11.1c7-3,14.3-5.1,21.8-6.4c7.5-1.3,15-1.6,22.4-0.9
				c7.4,0.7,14.3,2.3,20.6,4.9c7.7,3.2,14.5,7.3,20.3,12.3c5.8,5,11.4,10.2,16.8,15.6l3,2.7c1.6,1.8,3.3,3.5,5.1,5.2
				c1.8,1.7,3.7,3.3,5.6,4.9c1-3.4,2.1-6.8,3.3-10.4c1.2-3.6,2.6-7,4.2-10.4c4.8-11.3,11.2-21.1,19.3-29.4
				c8.1-8.3,17.4-14.5,27.9-18.4c8.7-3.4,17.3-4.8,25.7-4.2c8.4,0.6,16,3,22.7,7.1c2.8,1.2,5.2,2.9,7.3,5c2.1,2.2,3.6,4.8,4.6,7.7
				c2.2,5.5,2.5,11.8,0.9,18.7c-1.2,5.7-3.6,12.1-7.1,19c-2.8,5.2-5.9,9.9-9.5,14.4c-3.6,4.5-7.5,8.4-11.9,11.7
				c-9.5,7.9-20.4,13.3-32.7,16c-1.6,0.4-3.1,0.7-4.5,0.9c-1.4,0.2-2.9,0.4-4.5,0.6c-2.6,12.7-5.3,25.6-8.3,38.8
				c-3,13.2-7.3,26.1-13.1,38.8c10.7,1,21,1.7,30.9,2.1c9.9,0.4,19.5,0.4,28.8,0c2.4-18,7.3-35.6,14.9-52.7
				c7.5-17.1,17.1-33.3,28.8-48.6c11.7-15.2,25.1-29.5,40.2-42.6c15.1-13.2,31.6-24.8,49.3-35c17.7-10.2,36.4-18.6,56.1-25.2
				c19.7-6.6,39.9-11.2,60.7-13.8c11.5-1.4,22.3-2,32.5-1.8c10.2,0.2,19,1.2,26.3,3.1c7.3,1.9,12.9,4.7,16.8,8.3
				C1183.3,480,1184.5,484.5,1183.1,489.8z M652.1,737.3c-0.2,4.2,0.5,8.2,2.1,12c1.6,3.9,4.1,6.7,7.4,8.5
				c5.1,2.8,10.6,3.4,16.3,1.9c5.7-1.5,11.4-4.3,17.1-8.3c5.6-4.1,11.1-9,16.3-14.9c5.2-5.8,9.9-11.8,14-18
				c4.1-6.1,7.5-12,10.2-17.7c2.8-5.6,4.6-10.3,5.3-14.1c-5.9-1.2-12.3-1.8-19-1.8H721c-11.1,0.4-21.1,2.3-30,5.6
				c-11.1,4.6-20.1,10.8-27,18.7c-3.8,4.2-6.7,8.7-8.8,13.7C653.1,727.9,652.1,732.7,652.1,737.3z M873.9,541.8
				c1-4.8,0.8-8.9-0.6-12.5c-1.6-4-3.9-6.4-6.8-7.4c-1.8-0.6-3.6-0.9-5.3-0.9c-2.4,0-4.9,0.5-7.4,1.5c-3,1.2-6.1,3.1-9.5,5.6
				c-1.4,1.4-2.8,2.8-4.2,4.3c-1.4,1.5-2.6,3-3.6,4.6c-2.4,3.4-4.3,6.9-5.8,10.5c-1.5,3.7-2.9,7.3-4.3,10.8
				c-1.8,5.7-3.4,11.5-4.8,17.2c-1.4,5.7-2.7,11.5-3.9,17.2c1.6,0,3.5-0.3,5.6-0.9c9.9-2.2,18.9-6.5,27-13.1
				c6.9-5.9,12.8-13.3,17.5-22c1.6-2.8,2.8-5.4,3.7-8C872.6,546.4,873.3,544,873.9,541.8z"/>
			<path class="st0" d="M1043.2,590.5c0-1.6,0.4-3.1,1.3-4.5c0.9-1.4,2-2.6,3.4-3.6c-1-2.4-2.6-3.6-4.8-3.6c-2.8-0.2-5.8,1-9.2,3.7
				c-3.4,2.7-7,6.5-10.8,11.6c-3.9,5.1-7.9,11.3-12,18.7c-4.2,7.4-8.3,15.7-12.5,24.8c-2.6,5.7-4.7,11.9-6.4,18.6
				c-1.7,6.6-2.6,13-2.8,19c-0.2,6,0.4,11.3,1.8,15.9c1.4,4.6,3.9,7.5,7.4,8.9c2.8,1.2,5.7,0.9,8.8-0.9c3.1-1.8,6.1-4.6,9.2-8.3
				c3.1-3.8,6.2-8.3,9.5-13.7c3.3-5.3,6.4-10.9,9.5-16.8c3.1-5.8,6-11.7,8.9-17.5c2.9-5.8,5.6-11.2,8.2-16.2
				c2.8-6.5,5.5-12.7,8.2-18.6c2.7-5.8,4.9-11.1,6.7-15.7c1.8-4.7,3-8.6,3.6-11.9c0.6-3.3,0.3-5.5-0.9-6.7c-1.4-1.2-0.7-2.6,1.9-4.2
				c2.7-1.6,6-2.5,9.9-2.7c4-0.2,8.1,0.7,12.3,2.7c4.3,2,7.3,5.9,9.1,11.9c1.8,5.7,1.5,12.7-0.9,20.9c-2.4,8.2-5.7,16.8-9.9,25.7
				c-4.3,8.9-8.8,17.7-13.7,26.4c-4.9,8.7-8.9,16.5-12.2,23.3c-3.3,6.8-5.2,12.3-5.6,16.3c-0.5,4.1,1.5,5.9,6.1,5.5
				c1.8-0.2,4.3-1.8,7.4-4.8c3.2-3,6.6-6.8,10.4-11.4c3.8-4.7,7.7-9.8,11.7-15.6c4.1-5.7,7.8-11.5,11.3-17.2
				c3.5-5.7,6.6-11.2,9.4-16.3c2.8-5.1,4.8-9.4,5.9-12.8c0.6-1.6,1.6-2.6,3-3c1.4-0.4,2.7-0.4,3.9,0c1.2,0.4,2.1,1.2,2.8,2.4
				c0.7,1.2,0.6,2.5-0.1,3.9c-1.6,3.4-3.9,8-6.8,13.8c-3,5.8-6.5,12.1-10.5,18.7c-4.1,6.6-8.5,13.3-13.2,20
				c-4.8,6.7-9.7,12.9-14.7,18.4c-5.1,5.5-10.2,10.1-15.3,13.7c-5.2,3.6-10.1,5.3-14.9,5.3c-7.5,0.4-13.2-2.7-16.9-9.2
				c-3.8-6.5-5.2-14.9-4.2-24.9c-3.8,6.1-7.7,11.7-11.9,16.8c-4.2,5-8.7,9.1-13.5,12c-4.9,3-10,4.8-15.4,5.3
				c-5.4,0.6-11.4-0.5-18-3.3c-7.9-3.2-13.6-7.8-17.1-14c-3.5-6.1-5.5-12.8-6.1-20c-0.6-7.2,0-14.7,1.8-22.6c1.8-7.8,4-15,6.5-21.5
				c4.8-12.1,10-22.4,15.9-31c5.8-8.6,12-15.6,18.6-21.1c6.5-5.4,13.3-9.4,20.2-11.7c6.9-2.4,14-3.5,21.1-3.3
				c2.4,0.2,4.9,0.6,7.6,1.3c2.7,0.7,5.1,1.8,7.4,3.4c2.3,1.6,4.2,3.7,5.8,6.4c1.6,2.7,2.4,6,2.4,10c0,4.4-1,7.3-3,8.9
				c-1.6,1.8-3.7,2.7-6.2,2.7c-2.4,0-4.5-0.8-6.4-2.4C1044.2,595.2,1043.2,593.1,1043.2,590.5z"/>
			<path class="st0" d="M1199.5,590.5c0-1.6,0.4-3.1,1.3-4.5c0.9-1.4,2-2.6,3.4-3.6c-1-2.4-2.6-3.6-4.8-3.6c-2.8-0.2-5.8,1-9.2,3.7
				c-3.4,2.7-7,6.5-10.8,11.6c-3.9,5.1-7.9,11.3-12,18.7c-4.2,7.4-8.3,15.7-12.5,24.8c-2.6,5.7-4.7,12.1-6.4,19
				c-1.7,6.9-2.7,13.5-3,19.6c-0.3,6.1,0.2,11.4,1.6,15.9c1.4,4.5,4,7.1,7.7,7.9c4.4,0.8,9.1,0.1,14.1-1.9
				c5.1-2.1,10.2-5.2,15.4-9.4c5.2-4.2,10.4-9,15.4-14.6c5-5.5,9.8-11.4,14.3-17.5c4.5-6.1,8.4-12.2,11.9-18.3
				c3.5-6,6.2-11.6,8.2-16.8c0.6-1.6,1.6-2.6,3-3.1c1.4-0.5,2.9-0.3,4.5,0.4c2.6,1.4,3.3,3.5,2.1,6.2c-3.2,6.9-7.1,14.3-11.7,22.1
				c-4.7,7.8-9.9,15.4-15.6,22.7c-5.7,7.3-11.9,14.2-18.6,20.6c-6.6,6.4-13.5,11.7-20.5,15.7c-7,4.1-14.3,6.7-21.7,7.9
				c-7.4,1.2-14.7,0.3-21.8-2.7c-7.9-3.2-13.6-7.8-17.1-14c-3.5-6.1-5.5-12.8-6.1-20c-0.6-7.2,0-14.7,1.8-22.6
				c1.8-7.8,4-15,6.5-21.5c4.8-12.1,10-22.4,15.9-31c5.8-8.6,12-15.6,18.6-21.1c6.5-5.4,13.3-9.4,20.2-11.7c6.9-2.4,14-3.5,21.1-3.3
				c2.4,0.2,4.9,0.6,7.6,1.3c2.7,0.7,5.1,1.8,7.4,3.4c2.3,1.6,4.2,3.7,5.8,6.4c1.6,2.7,2.4,6,2.4,10c0,4-0.9,6.8-2.7,8.6
				c-1.6,2-3.8,3-6.5,3c-2.4,0-4.5-0.8-6.4-2.4C1200.4,595.2,1199.5,593.1,1199.5,590.5z"/>
			<path class="st0" d="M1211,700.4c-1.2-3.6-0.8-9.3,1-17.2c1.9-7.9,4.8-17.2,8.6-27.8c3.9-10.6,8.4-22,13.5-34.3
				c5.1-12.3,10.4-24.7,15.9-37.1c5.4-12.5,10.7-24.6,15.7-36.4c5-11.8,9.5-22.3,13.2-31.6c3.8-9.3,6.5-17,8.3-23.2
				c1.8-6.1,2.1-9.8,0.9-11c-1.4-1.2-0.7-2.6,1.9-4.2c2.7-1.6,6-2.5,10.1-2.7c4.1-0.2,8.2,0.7,12.3,2.7c4.2,2,7.1,5.9,8.9,11.9
				c1.2,4.2,0.6,10.6-1.8,19.3c-2.4,8.7-5.8,18.8-10.4,30.1c-4.6,11.4-9.9,23.6-15.9,36.7c-6,13.1-12.1,26-18.3,38.9
				c4.2-3.4,8.8-7.1,14-11.1c5.1-4.1,10.3-8.3,15.6-12.6c5.2-4.4,10.3-8.8,15.3-13.2c4.9-4.5,9.4-8.6,13.2-12.3
				c3.9-3.8,7-7.2,9.4-10.2c2.4-3.1,3.6-5.5,3.6-7.3c0-1.8,1.5-2.3,4.5-1.5c3,0.8,5.9,2.6,8.9,5.5c3,2.9,5.1,6.5,6.5,11
				c1.4,4.5,0.5,9.4-2.7,14.7c-2.4,4.2-6.1,8.2-11.1,12.2c-5,4-10.7,7.7-17.1,11.3c-6.3,3.6-13,6.9-19.9,10.1
				c-6.9,3.2-13.6,6-19.9,8.6c3,4.6,6.7,11,11.1,19.3c4.5,8.3,9.5,17.5,15,27.5c5.5,10,11.5,20.2,17.8,30.4
				c6.3,10.3,12.9,19.7,19.8,28.2c6.8,8.5,13.7,15.5,20.5,20.9c6.8,5.4,13.5,8.3,20,8.5c1.8,0,2.5,1.3,2.2,4c-0.3,2.7-1.6,5.6-4,8.8
				c-2.4,3.2-5.7,6.1-10.1,8.8c-4.4,2.7-9.6,3.9-15.7,3.7c-9.3-0.2-17.6-4-24.9-11.3c-7.3-7.3-13.9-16.5-19.8-27.5
				c-5.8-11-11.1-22.9-15.7-35.6c-4.7-12.8-8.9-24.8-12.8-36.1c-3.9-11.3-7.4-20.8-10.7-28.7c-3.3-7.8-6.6-12.3-10-13.5
				c-2.8,1.4-5.2,2.6-7.3,3.7c-2.1,1.1-3.8,2.1-5.2,3.1c-4.4,9.1-8.4,17.8-12,26c-3.7,8.2-6.7,15.6-9.2,22.1
				c-2.5,6.5-4.3,12.1-5.3,16.6c-1.1,4.6-1.1,7.7-0.1,9.5c0.8,1.6,0.1,3.2-1.9,4.9c-2.1,1.7-4.8,2.6-8,2.7
				c-3.3,0.1-6.6-0.9-10.1-3.1C1215.5,710.4,1212.8,706.4,1211,700.4z"/>
			<path class="st0" d="M1402.3,708.7l-0.3,0.3c-4.4,2.2-8.5,3.9-12.5,5c-4,1.2-7.3,1.8-10.1,1.8c-7.9,0-14-2-18.3-6.1
				c-4.3-4.1-7.1-8.9-8.5-14.4c-1.4-5.5-1.6-11.1-0.6-16.6c1-5.5,2.9-9.8,5.6-12.8c4-4.2,7.5-6.9,10.7-8.3c3.2-1.4,5.8-1.9,8-1.5
				c2.2,0.2,4.2,1.1,6.1,2.7c1.9,1.6,2.8,3.6,2.8,5.9c0,2.6-0.9,4.8-2.8,6.5c-1.9,1.8-4,2.7-6.4,2.7c-1.8,0-3.5-0.5-5-1.6
				c-1.6-1.1-2.7-2.5-3.3-4.3c-2.6,3-4.4,6.5-5.3,10.7c-1,4.2-1.2,8.1-0.6,11.9c0.6,3.8,2.1,7,4.6,9.7c2.5,2.7,5.9,4.1,10.2,4.3
				c1.6,0,3.9-0.7,6.8-2.2c3-1.5,6-4,9.1-7.4c3.1-3.5,5.8-7.9,8.2-13.4c2.4-5.4,3.8-12,4.3-19.8c0.5-7.7-0.3-16.7-2.5-27
				c-2.2-10.3-6.3-21.9-12.5-34.8c-2,3.8-4.2,7.9-6.7,12.3c-2.5,4.5-4.7,8.7-6.7,12.6c-1,1.4-2.2,2.2-3.6,2.4
				c-1.4,0.2-2.7,0.1-3.9-0.4c-1.2-0.5-2-1.3-2.5-2.4c-0.5-1.1-0.3-2.3,0.4-3.7c1.6-3.4,3.1-6.4,4.5-9.1c1.4-2.7,2.8-5.2,4.2-7.6
				c1.4-2.4,2.7-4.8,3.9-7.3c1.2-2.5,2.5-5.1,3.9-7.9c-2.2-3.2-3.9-6.6-5-10.4c-1.2-3.8-1.8-7.7-1.8-11.9c0-1.8,0.3-4,1-6.7
				c0.7-2.7,1.9-5.3,3.6-8c1.7-2.7,4-4.9,7-6.8c3-1.9,6.8-2.8,11.6-2.8c4.9,0,8.6,1.1,10.8,3.3c2.3,2.2,3.5,5,3.7,8.3
				c0.2,3.4-0.5,7.1-2.1,11.1c-1.6,4.1-3.7,8.1-6.2,12l-0.9,1.8c7.7,8.9,13.9,17.4,18.6,25.5c4.6,8.1,8.2,15.8,10.5,23.2
				c2.4,7.3,3.7,14.2,4,20.5c0.3,6.3-0.2,12.3-1.6,17.8c6.5-7.5,12.4-14.9,17.5-22.3c5.1-7.3,9.4-14.3,12.8-20.8
				c0.6-1.4,1.5-2.3,2.7-2.8c1.2-0.5,2.7-0.2,4.5,0.7c1.4,0.8,2.2,1.9,2.5,3.3c0.3,1.4,0.1,2.7-0.4,3.9
				c-4.8,9.7-10.2,18.8-16.5,27.3c-6.2,8.5-13.1,17-20.6,25.5c-5.3,5.9-10.9,11.3-16.8,16c-5.8,4.8-12.4,8.7-19.8,11.9H1402.3z"/>
		</g>
		<g>
			<path class="st0" d="M260.1,513.2c0.3,0.9,0.5,1.8,0.9,2.6C312.4,292,513,125,752.6,125c240.3,0,441.3,168,492.1,392.9
				c2-4.8,3.9-9.3,5.6-13.6c3-7.3,5.2-13.5,6.7-18.3c-0.5-2.7-0.6-5.5-0.4-8.3c0.5-5.2,2.7-14.2,11.1-21.9c-0.8-2.3-1.7-4.6-2.4-7
				c-17.5-54.4-11.2-105.1,14.2-113.3c0.1,0,0.1,0,0.2,0c-1.2-2.1-2.4-4.3-3.6-6.4c-0.5,0.5-0.9,1-1.5,1.5
				c-20.8,16.6-66.6-6.1-102.3-50.8c-34.7-43.5-46.9-91.7-28.2-109.5c-1.6-1.4-3.3-2.8-4.9-4.2c-13.8,22.7-64.5,17.6-113.5-11.5
				c-47.5-28.2-75.8-68.5-65.4-91.9c-2-0.7-4-1.4-6-2.1c-5.6,25.7-54.4,38.5-110,28.7c-54.7-9.6-95.7-37.6-93.8-63.3
				c-2.1,0-4.2,0.1-6.3,0.1c4.5,26.1-36.9,55.7-92.8,66.3c-56.1,10.6-105.6-2-110.6-28.2c-2.8,1-5.5,2.1-8.3,3.1
				c0.9,1.1,1.8,2.2,2.6,3.5c13.7,22.9-11.7,63.3-56.7,90.2c-45,26.9-92.6,30.2-106.3,7.4c-1-1.7-1.8-3.6-2.4-5.5
				c-2.6,2.1-5.1,4.2-7.6,6.4c16,18.8,6.3,65.1-23.9,108.4c-32.7,46.9-76.9,72.5-98.8,57.3c-3.5-2.4-6.1-5.8-8.1-9.9
				c-2.4,4.1-4.8,8.2-7.1,12.4c25.4,8.1,32.2,58.6,15.2,113.1c-2.6,8.4-5.6,16.3-9,23.7c2.5,1.7,4.9,3.5,7.3,5.5
				C247.3,488.1,254.8,499.3,260.1,513.2z"/>
			<path class="st0" d="M1273.9,692.3c-0.1,0.2-0.2,0.5-0.3,0.7c-1.8,4.9-2.9,8.3-3.6,10.7c2.1,12.3-2.7,24.9-13.4,33.5
				c-3.8,3.1-8,5.4-12.7,7c-52,223.3-252.2,389.7-491.4,389.7c-240.5,0-441.7-168.3-492.2-393.5c-4.7-2.2-9.1-4.9-13.2-8.2
				c-12,15.6-24.6,29.6-37.4,41.6c12.1,14.4,23.3,33.9,31.5,56.7c18,49.9,15.3,97.3-5.3,111.1c1.9,3.1,3.8,6.2,5.7,9.2
				c1.3-1.8,2.8-3.5,4.6-4.8c21.2-16.2,66.5,7.5,101.2,52.8c30.4,39.8,42.6,83.1,30.9,104.1c2.3,1.8,4.7,3.7,7.1,5.5
				c0.3-0.6,0.4-1.2,0.8-1.8c12.7-23.5,60.4-22.3,106.5,2.7c46.2,24.9,73.3,64.2,60.6,87.6c-0.4,0.7-0.9,1.3-1.3,1.9
				c2.6,0.9,5.1,1.8,7.7,2.7c5.8-25.2,53.6-39.2,108.8-31.3c56.6,8.1,99.4,36.1,95.6,62.5c0,0,0,0.1,0,0.1c2.2,0,4.4-0.1,6.5-0.1
				c-3.7-25.7,36.1-55.7,90.7-67.9c55.8-12.4,105.7-1.4,111.5,24.7c0.1,0.6,0.1,1.3,0.2,1.9c2.2-0.9,4.5-1.8,6.7-2.7c0,0,0,0,0-0.1
				c-14.6-22.3,12.3-65.8,60.1-97.1c47.8-31.3,98.4-38.7,113-16.4c0.8,1.3,1.5,2.7,2.1,4.1c2.2-1.9,4.3-3.9,6.5-5.9
				c-0.8-0.5-1.7-0.8-2.4-1.4c-21.6-15.7-11.8-65.9,21.8-112.1c33.6-46.2,78.4-70.9,99.9-55.3c2.3,1.7,4.2,3.8,5.8,6.3
				c1.9-3.6,3.7-7.1,5.5-10.7c-2.3,0-4.5-0.1-6.7-0.7c-25.7-7.1-34.3-57.4-19.2-112.6c5.7-20.6,13.8-39,23.2-53.5
				c-2.4-5.7-4.8-11.4-6.9-17.4C1279.4,707.8,1276.5,699.9,1273.9,692.3z"/>
			<path class="st0" d="M322.8,535.9c43-197.8,219.3-346.4,429.8-346.4c172.4,0,322,99.8,394.1,244.6c8.7,0.6,16.6,1.8,23.8,3.7
				c1.8,0.5,3.5,1.1,5.3,1.7c-72.7-161.3-235-273.9-423.1-273.9C526,165.6,337,328.9,296.7,543.9c2.1-1,4.3-2,6.5-2.9
				C309.5,538.6,316.1,536.9,322.8,535.9z"/>
			<path class="st0" d="M1194.4,732.6c-0.5,0.3-1,0.6-1.5,0.9c-4.8,2.8-9.7,5-14.7,6.9c-49.3,189-221.4,328.9-425.6,328.9
				c-206.3,0-379.9-142.8-427.1-334.8c-0.9,0.6-1.8,1.3-2.7,1.8c-6.2,3.9-12.7,6.6-19.5,8.3c51.4,200.2,233.3,348.6,449.3,348.6
				c217.8,0,401.1-151,450.6-353.8c-0.3-0.2-0.5-0.3-0.8-0.4C1199.5,737.1,1196.8,735,1194.4,732.6z"/>
		</g>
	</g>
	<g>
		<path class="st0" d="M942.9,622.2c-5.8,11.1-10.9,22.7-15.3,34.7c5.4-2.1,10.5-4.4,15.1-7c0.1-0.3,0.2-0.7,0.2-1
			C942.9,640,943,631.1,942.9,622.2z"/>
		<path class="st0" d="M591.7,556.7c4,1.9,8.9,5.3,12.7,11.7c0.3-37.1,0.6-74.2,0.9-111.4c0.1-14.1,3.3-26.3,15.7-35.3
			c2.8-2,5-4.8,7.1-7.8c6.7,1.4,15,2.8,25.2,4.1c30,3.8,69.8,5.9,112,5.9s82-2.1,112-5.9c10.6-1.3,19.1-2.8,26-4.3
			c4.8,4.9,9.7,9.9,13.6,15.5c4.2,5.9,7.4,14,7.5,21.1c0.5,27.4,0.7,54.8,0.9,82.3c1-0.9,1.9-1.8,2.9-2.7c4.4-3.8,9-7.5,13.6-11.2
			c-0.3-22.8-0.7-45.6-1-68.4c-0.2-15.2-4.4-28.6-17.4-38.4c-1.3-1-2.4-2.1-3.5-3.3c8.1-3.7,10.4-7.9,10.4-12.7
			c0-9.5-8.9-16.5-53.1-22.1c-30-3.8-69.8-5.9-112-5.9s-82,2.1-112,5.9c-44.2,5.6-53.1,12.6-53.1,22.1c0,4.8,2.3,8.9,10.2,12.6
			c-1.4,1.6-2.9,3-4.6,4.3c-10.8,8.3-14.9,19.4-16.1,32c-1.2,12.3-2,24.6-2,36.9c0,24.4,0,48.9,0,73.3
			C589.1,555.6,590.4,556.1,591.7,556.7z M765.3,384.2c72.8,0,123.9,6.1,142.7,11.8c-18.8,5.7-69.9,11.8-142.7,11.8
			c-72.8,0-123.9-6.1-142.7-11.8C641.4,390.3,692.5,384.2,765.3,384.2z"/>
		<path class="st0" d="M942.9,694.1c-5.3,2.1-10.9,4-16.8,5.7c0.1,27.3,0.2,54.5,0.3,81.8c0,20.4-0.2,40.8-0.9,61.2
			c-0.6,16.6-11.2,27.7-25.1,33.3c-16.9,6.9-35,11.7-52.9,15.2c-64.8,12.5-129.5,10.7-193.5-5.8c-10.6-2.7-20.9-8.1-30.2-13.9
			c-13.2-8.2-19.6-20.3-19.5-36.8c0.3-49-0.5-98.1-0.5-147.1c-4.7,6.5-9.5,12.5-14.4,17.9c-0.6,0.7-1.2,1.3-1.8,1.9
			c0,42.7,0,85.3-0.1,128c0,18.4,6.5,33.2,20.3,44.6c3,2.5,6,4.9,8.5,7.5c0.6,0.5,1.3,0.9,2,1.4c1.6,11,6.8,20.2,15.7,27.6
			c2.4,2,4.8,3.9,6.8,6c4,3,10.8,7,21.6,10.1c0,0,0,0-0.1-0.1c3.3,0.9,6.6,1.7,9.9,2.5c3.7,0.7,7,1.5,10,2.2
			c58.6,12.2,116.9,10,176.3-4.6c0,0,14.5-3.5,26.5-13.2c0.3-0.2,0.5-0.4,0.7-0.6c0.5-0.4,1-0.9,1.5-1.3c7-6.3,11.6-13.8,14-22.4
			c5.8-2.6,12.6-6.3,18.9-11.4c0.3-0.3,0.6-0.5,0.9-0.8c0.6-0.5,1.3-1.1,1.9-1.7c13.4-12.3,20.1-27.6,19.9-47.3
			C942.6,787.4,942.8,740.7,942.9,694.1z M869.2,913.4c-13.6,5.5-28.1,9.4-42.6,12.2c-52.1,10.1-104.1,8.6-155.5-4.7
			c-8.5-2.2-16.8-6.5-24.3-11.2c-5.3-3.3-9.1-7.3-11.7-12.2c2.4,0.9,5.1,1.8,8,2.7c3.6,1,7.5,2,11.7,2.9c0.2,0,0.3,0.1,0.5,0.1
			c4.6,0.9,8.7,1.9,12.5,2.8c72.2,15,144.1,12.5,217.4-5.3C881.5,906.5,875.8,910.7,869.2,913.4z"/>
	</g>
	<g>
		<path class="st0" d="M260.1,513.2c0.3,0.9,0.5,1.8,0.9,2.6C312.4,292,513,125,752.6,125c240.3,0,441.3,168,492.1,392.9
			c2-4.8,3.9-9.3,5.6-13.6c3-7.3,5.2-13.5,6.7-18.3c-0.5-2.7-0.6-5.5-0.4-8.3c0.5-5.2,2.7-14.2,11.1-21.9c-0.8-2.3-1.7-4.6-2.4-7
			c-17.5-54.4-11.2-105.1,14.2-113.3c0.1,0,0.1,0,0.2,0c-1.2-2.1-2.4-4.3-3.6-6.4c-0.5,0.5-0.9,1-1.5,1.5
			c-20.8,16.6-66.6-6.1-102.3-50.8c-34.7-43.5-46.9-91.7-28.2-109.5c-1.6-1.4-3.3-2.8-4.9-4.2c-13.8,22.7-64.5,17.6-113.5-11.5
			c-47.5-28.2-75.8-68.5-65.4-91.9c-2-0.7-4-1.4-6-2.1c-5.6,25.7-54.4,38.5-110,28.7c-54.7-9.6-95.7-37.6-93.8-63.3
			c-2.1,0-4.2,0.1-6.3,0.1c4.5,26.1-36.9,55.7-92.8,66.3c-56.1,10.6-105.6-2-110.6-28.2c-2.8,1-5.5,2.1-8.3,3.1
			c0.9,1.1,1.8,2.2,2.6,3.5c13.7,22.9-11.7,63.3-56.7,90.2c-45,26.9-92.6,30.2-106.3,7.4c-1-1.7-1.8-3.6-2.4-5.5
			c-2.6,2.1-5.1,4.2-7.6,6.4c16,18.8,6.3,65.1-23.9,108.4c-32.7,46.9-76.9,72.5-98.8,57.3c-3.5-2.4-6.1-5.8-8.1-9.9
			c-2.4,4.1-4.8,8.2-7.1,12.4c25.4,8.1,32.2,58.6,15.2,113.1c-2.6,8.4-5.6,16.3-9,23.7c2.5,1.7,4.9,3.5,7.3,5.5
			C247.3,488.1,254.8,499.3,260.1,513.2z"/>
		<path class="st0" d="M1273.9,692.3c-0.1,0.2-0.2,0.5-0.3,0.7c-1.8,4.9-2.9,8.3-3.6,10.7c2.1,12.3-2.7,24.9-13.4,33.5
			c-3.8,3.1-8,5.4-12.7,7c-52,223.3-252.2,389.7-491.4,389.7c-240.5,0-441.7-168.3-492.2-393.5c-4.7-2.2-9.1-4.9-13.2-8.2
			c-12,15.6-24.6,29.6-37.4,41.6c12.1,14.4,23.3,33.9,31.5,56.7c18,49.9,15.3,97.3-5.3,111.1c1.9,3.1,3.8,6.2,5.7,9.2
			c1.3-1.8,2.8-3.5,4.6-4.8c21.2-16.2,66.5,7.5,101.2,52.8c30.4,39.8,42.6,83.1,30.9,104.1c2.3,1.8,4.7,3.7,7.1,5.5
			c0.3-0.6,0.4-1.2,0.8-1.8c12.7-23.5,60.4-22.3,106.5,2.7c46.2,24.9,73.3,64.2,60.6,87.6c-0.4,0.7-0.9,1.3-1.3,1.9
			c2.6,0.9,5.1,1.8,7.7,2.7c5.8-25.2,53.6-39.2,108.8-31.3c56.6,8.1,99.4,36.1,95.6,62.5c0,0,0,0.1,0,0.1c2.2,0,4.4-0.1,6.5-0.1
			c-3.7-25.7,36.1-55.7,90.7-67.9c55.8-12.4,105.7-1.4,111.5,24.7c0.1,0.6,0.1,1.3,0.2,1.9c2.2-0.9,4.5-1.8,6.7-2.7c0,0,0,0,0-0.1
			c-14.6-22.3,12.3-65.8,60.1-97.1c47.8-31.3,98.4-38.7,113-16.4c0.8,1.3,1.5,2.7,2.1,4.1c2.2-1.9,4.3-3.9,6.5-5.9
			c-0.8-0.5-1.7-0.8-2.4-1.4c-21.6-15.7-11.8-65.9,21.8-112.1c33.6-46.2,78.4-70.9,99.9-55.3c2.3,1.7,4.2,3.8,5.8,6.3
			c1.9-3.6,3.7-7.1,5.5-10.7c-2.3,0-4.5-0.1-6.7-0.7c-25.7-7.1-34.3-57.4-19.2-112.6c5.7-20.6,13.8-39,23.2-53.5
			c-2.4-5.7-4.8-11.4-6.9-17.4C1279.4,707.8,1276.5,699.9,1273.9,692.3z"/>
		<path class="st0" d="M322.8,535.9c43-197.8,219.3-346.4,429.8-346.4c172.4,0,322,99.8,394.1,244.6c8.7,0.6,16.6,1.8,23.8,3.7
			c1.8,0.5,3.5,1.1,5.3,1.7c-72.7-161.3-235-273.9-423.1-273.9C526,165.6,337,328.9,296.7,543.9c2.1-1,4.3-2,6.5-2.9
			C309.5,538.6,316.1,536.9,322.8,535.9z"/>
		<path class="st0" d="M1194.4,732.6c-0.5,0.3-1,0.6-1.5,0.9c-4.8,2.8-9.7,5-14.7,6.9c-49.3,189-221.4,328.9-425.6,328.9
			c-206.3,0-379.9-142.8-427.1-334.8c-0.9,0.6-1.8,1.3-2.7,1.8c-6.2,3.9-12.7,6.6-19.5,8.3c51.4,200.2,233.3,348.6,449.3,348.6
			c217.8,0,401.1-151,450.6-353.8c-0.3-0.2-0.5-0.3-0.8-0.4C1199.5,737.1,1196.8,735,1194.4,732.6z"/>
	</g>
</g>
</svg>